<?xml version="1.0" encoding="utf-8"?>
<!-- Generator: Adobe Illustrator 19.1.1, SVG Export Plug-In . SVG Version: 6.00 Build 0)  -->
<svg version="1.1" id="Layer_1" xmlns="http://www.w3.org/2000/svg" xmlns:xlink="http://www.w3.org/1999/xlink" x="0px" y="0px"
	 viewBox="0 0 5042 1308.5" style="enable-background:new 0 0 5042 1308.5;" xml:space="preserve">
<style type="text/css">
	.st0{fill-rule:evenodd;clip-rule:evenodd;fill:#FFFFFF;}
	.st1{fill:#FFFFFF;}
</style>
<g>
	<g>
		<path class="st0" d="M908.6,546.1c4.2-17.1,6.5-35,12.8-51.3c23.9-61.9,72-93.5,135.6-103.7c36.5-5.9,72.5-2.7,106.5,12.6
			c61.1,27.5,94.2,75.5,99.1,142c1.4,19.7,1.6,40.4-3.1,59.3c-6.9,28.1-21.3,53.4-43.1,73.5c-6.4,5.9-13.2,11.4-20.2,16.6
			c-2.6,1.9-6.3,3.8-9.4,3.5c-7.5-0.6-13.1,0.3-17.4,7.9c-7.2,12.6-21.5,15.3-33.7,16.9c-33.8,4.6-68.5,7.8-101.7-1.7
			c-63.8-18.3-105.3-60.1-122.3-125c-1.3-4.9-2.1-10-3.1-15C908.6,569.9,908.6,558,908.6,546.1z M1090.7,497.4
			c-38.8-0.7-69.5,29-66.7,65.2c1.1,15,6.2,29.4,17.7,39c10.5,8.8,23.4,14.6,35.3,21.6c1,0.6,2.8,0.2,4.1-0.1
			c10.4-2.5,21.3-3.9,31.1-8c28.2-11.8,42.6-38.3,37.2-66.3C1143.8,519.4,1119.2,497.9,1090.7,497.4z"/>
	</g>
	<g>
		<path class="st0" d="M2590.5,515.5c-4.1,14.5-7.7,29.2-12.5,43.5c-13.5,40.3-27.1,80.6-41.5,120.6c-4.8,13.4-11.2,26.4-18.5,38.5
			c-2.9,4.8-10.4,9.2-16,9.4c-24,1.1-48.2,0.8-72.3,0.1c-3.3-0.1-8.2-5.1-9.4-8.7c-18-55.5-35.5-111.3-53.1-166.9
			c-3.6-11.4-7.4-22.8-11.4-35.1c-7.9,8-5,16.9-4.3,25.2c0.6,7.3,2,176.1,4.3,186.5c-20.7,0-39.8,0-59,0c-15,0-30.1-0.1-45.1,0.4
			c-6.9,0.3-9.4-2.9-9.9-8.9c-0.1-1-0.1-2.1-0.1-3.1c0-32.8-0.1-65.5,0-98.3c0-3,1-6.2,2.3-8.9c2.9-6.2,5.1-11.8-0.7-17.9
			c-1.7-1.8-1.6-5.9-1.6-8.9c-0.1-47.2-0.1-94.3-0.1-141.5c0-10.4,0.3-20.8,0-31.1c-0.3-9,3.5-14.3,12.6-14.3
			c22.2,0.1,44.5,0.7,66.7,0.8c4,0,8.1-1.8,12.1-1.8c27.2-0.2,54.5-0.5,81.7,0.4c3.9,0.1,9.7,5.7,11,9.8c13.9,47,27,94.2,40.4,141.3
			c1.9,6.8,4.4,13.5,9.1,20.3c5.2-16.7,10.4-33.4,15.6-50.1c11.2-36.1,22.7-72.2,33.4-108.5c3.3-11.1,8.5-15.6,20.6-15.4
			c45.4,0.7,90.8,0.5,136.2,0.1c9.9-0.1,13.7,3,13.7,13.1c0,27.6,1.2,55.1,1.3,82.7c0.5,72.9,0.4,145.8,1.3,218.6
			c0.1,11.8-3.9,16.5-14.8,17.2c-4.8,0.3-9.7,1.6-14.5,1.6c-23.7,0.2-47.5,0.1-71.3,0.1c-6,0-9.4-1-9.2-8.8
			c1.7-50.2,2.8-100.5,4.2-150.7c0.4-13.9,1.7-27.8,2.4-41.7c0.1-3.1-0.7-6.3-1.1-9.5C2592.4,515.6,2591.5,515.6,2590.5,515.5z"/>
	</g>
	<g>
		<path class="st0" d="M1749.4,443.5c29.3,0,58.7,0.4,88-0.1c84.8-1.4,130.9,67.3,140.3,123c3.6,21.1,1.4,41.7-3.4,62.2
			c-1,4.4-4.5,8.2-6.5,12.4c-2.2,4.5-3.8,9.4-5.9,13.9c-10.7,23.4-25.7,43-49.4,54.6c-21.6,10.5-44.4,15.7-68.5,16.1
			c-40.1,0.7-80.2,2.2-120.3,2.6c-19.7,0.2-39.5-1.2-59.2-1.8c-1.4-0.1-2.8-0.1-4.2,0.1c-23.5,3.8-23.3,1.9-23.3-23.2
			c0-42.9-0.9-85.9,0.6-128.8c0.4-12.1-4.6-22.8-3.9-34.6c1.5-28.2,2.4-56.4,3.3-84.5c0.2-6.8,3.4-10.3,10-10.9
			c2.8-0.2,5.6-0.6,8.3-0.6c31.4,0,62.8,0,94.3,0C1749.4,443.8,1749.4,443.6,1749.4,443.5z M1740.7,644.4c26.2,0,49.9,0.8,73.6-0.4
			c10-0.5,21.3-2.9,29.5-8.2c21.7-14.2,31.2-36,26.2-61.4c-4.8-24.4-22-40.7-45.9-44.3c-26.9-4-54.5-3.2-81.9-4.5
			c0,15.9,0.3,30.2-0.2,44.4c-0.1,3.8-1.5,9.7-4,10.8c-10.7,4.6-4.8,8.6-0.7,13.5c2.3,2.7,5.1,6.2,5.1,9.3
			C1742.5,616.9,1741.4,630.3,1740.7,644.4z"/>
	</g>
	<g>
		<path class="st0" d="M3572.2,628.7c0,26.9-0.1,53,0,79.2c0,12.4-3.3,16.4-15.8,16.6c-22.7,0.3-45.4,0.3-68.1,0.1
			c-10.9-0.1-15.9-4.9-17.5-15.5c-0.3-1.7-0.2-3.5-0.2-5.2c0-38.6,0.3-77.1-0.1-115.7c-0.3-30.9-1.4-61.8-2-92.7
			c-0.3-12.5-0.4-25-0.3-37.5c0.1-12.1,2.9-14.9,14.6-14.9c69.5,0.1,139-0.4,208.5,0.8c16.7,0.3,34.1,3.9,49.8,9.8
			c44.3,16.5,56.7,51.9,53.4,94.6c-1.2,15.3-8,27.9-18.2,38.9c-4.7,5.1-9.2,10.4-14,15.9c16,15.5,25.9,33.6,27.4,55
			c1.4,19.6,0.5,39.4,0.5,59.2c0,6.5-3.3,9.3-9.8,9.3c-27.6-0.3-55.2-0.3-82.8-0.6c-10.5-0.1-15.7-5.5-15.8-16.1
			c-0.2-14.9-0.3-29.8-0.5-44.7c-0.3-21.2-11.1-34.3-34.9-36.2C3621.8,627.1,3596.9,628.7,3572.2,628.7z M3571.1,550.3
			c17.3,0,33.7,0.1,50,0c18.5-0.1,37-0.1,55.5-0.8c6.6-0.2,13.9-1.4,13.5-10.8c-0.4-9.5-7.4-9.5-14.3-9.5c-25.8,0-51.6,0-77.5,0
			c-8.9,0-17.9,0-27.2,0C3571.1,536.6,3571.1,542.8,3571.1,550.3z"/>
	</g>
	<g>
		<path class="st0" d="M3415.6,583.9c9.5,69.9-61.1,140.6-124.8,148.2c-53.9,6.4-102.7-6.4-144.9-40.2c-33.7-27-45.4-64.9-44.5-107
			c0.8-37,13.1-70.4,35.1-99.8c22.2-29.5,52.3-46.3,89.1-50.7c40.7-4.8,80.7-3.4,118.3,15.7c47.9,24.3,70.9,63.9,71.6,117
			C3415.7,572.8,3415.6,578.3,3415.6,583.9z M3257.9,529.2c-31.7-0.1-55.2,24.5-56.4,57.2c-1.1,31.8,29.3,55.9,54.5,56
			c29.3,0.2,60.4-27.8,58.4-55.5C3312.2,554.7,3292.9,530.3,3257.9,529.2z"/>
	</g>
	<g>
		<path class="st0" d="M3060.4,663.1c1.2,18.6,2.5,37.6,3.8,57.7c-16.4,1.9-31.4,4.2-46.6,5.1c-15,0.9-30,0.5-45-0.1
			c-2.6-0.1-6.5-3.4-7.4-6c-3-8.5-4.8-17.4-7.5-27.5c-10.8,0-21.9,0-33,0c-18.9,0-37.7,0.4-56.6-0.2c-8.8-0.3-12.4,3.2-14.2,11.3
			c-5.4,24.8-0.2,20.1-26.6,22.3c-23.1,2-46.4,0.6-69.7,0.7c-11.2,0.1-9-7.9-7.8-14.1c3.8-19.4,8.5-38.7,12.5-58.1
			c4.2-20.8,9-41.6,11.7-62.6c5.7-45,18-88.7,26.1-133.2c2-11.2,9.4-12.7,18.1-13c33.5-1,67-1.7,100.5-2.6c23.3-0.6,46.7-1.4,70-2.1
			c1,0,2.1-0.2,3.1-0.2c18.7,0.1,21,1.7,24.8,19.8c10,47.3,20,94.5,29.5,141.9c2.7,13.2,3.9,26.6,5.6,40c0.4,2.7,0.9,6.1-0.3,8.1
			C3046.4,659.2,3051.9,661.2,3060.4,663.1z M2928.4,529.2c-13.7,0-26.9-0.4-40,0.3c-2.6,0.1-6.8,3.9-7.2,6.5
			c-3.3,22.4-5.8,44.8-8.7,67.3c-0.8,6.1,1.5,8,7.4,8c18.1-0.2,36.3-0.4,54.4,0c7.9,0.2,9.6-3,8.2-10.1
			C2937.7,577.7,2933.2,554.2,2928.4,529.2z"/>
	</g>
	<g>
		<path class="st0" d="M1428.6,640.9c32.9,0,66.8,0.3,100.7-0.1c17.4-0.2,34.8-1.5,52.1-2.4c6.2-0.3,10.3,1.6,10.3,8.5
			c0,25.8,0,51.6,0,78.6c-4.5,0-8.2,0-12,0c-55.9,0-111.8,0.3-167.7-0.2c-17-0.1-34-3.9-50.8-2.7c-9,0.6-15.8-2.2-23.6-4.1
			c-2.8-0.7-6.7,2.7-11,4.6c-6.3-4.9-9.6-12.2-9.3-21.5c0.8-21.8,1.1-43.6,2.2-65.4c0.3-6.4,2.6-12.7,3.9-19.1
			c4.1-19.6-8.4-38-4-57.6c0.9-4.2,3-8.1,3.8-12.2c1-5.2,2.1-10.7,1.8-15.9c-1.4-25.7-3.2-51.3-4.9-76.9
			c-0.6-8.7,3.2-11.6,11.7-11.5c28.6,0.6,57.3,0.8,85.9,0.7c9.3,0,12.9,3.2,12.7,13c-1,50.6-1.4,101.3-1.9,151.9
			C1428.5,618.9,1428.6,629.1,1428.6,640.9z"/>
	</g>
	<g>
		<path class="st0" d="M3861.1,724.2c-3.4-25.3-7.4-49.5-4-74.9c1.7-12.9,2.3-81.8,2.8-88.9c0.6-7.6-0.2-15.2,0.2-22.8
			c0.2-4.2,1.6-8.4,2.7-13.7c4.5,2.5-6.8-70.5-4.1-72.5c4.7-3.4,18.3,2.1,20.8-2.3c4.1-7,9.3-6.1,15-5.9c18.5,0.4,37,0.7,55.5,1.6
			c10.5,0.5,14.3,4.9,14.2,15.8c-0.5,81.6-1.1,163.2-1.7,244.7c-0.1,11.3-5.6,16.1-16.4,16.8c-7.5,0.5-15.8,5.7-22.1,3.6
			C3903.2,719.1,3882.4,723.9,3861.1,724.2z"/>
	</g>
</g>
<g>
	<path class="st1" d="M2252.7,907.1v-72.4h11.9v10.9c5.4-6.4,15.1-12.7,28.4-12.7c18.2,0,27.5,11.5,27.5,30.2v44h-11.9v-41.5
		c0-18.2-11.4-21.5-19.7-21.5c-9.9,0-20,7.2-24.2,14.5v48.5H2252.7z"/>
	<path class="st1" d="M2368.6,871c0-21.3,14.8-38.1,36.9-38.1c24,0,33.9,21,33.9,37.8v3.3h-58.7c1.5,14.9,13.3,24.3,30.2,24.3
		c9.1,0,17-2.7,23.3-6.7V902c-5.4,4-14.9,6.9-25.7,6.9C2386.2,908.9,2368.6,893.5,2368.6,871z M2427.4,864.4
		c-0.3-8.8-6.6-20.9-22.5-20.9c-14.8,0-23.3,10.4-24,20.9H2427.4z"/>
	<path class="st1" d="M2481.9,834.7h12.1l19.6,55l19.3-55.3h9.9l19.4,55.3l19.4-55h11.9l-25.8,72.9h-10.3l-19.9-55.4l-19.4,55.4
		h-10.3L2481.9,834.7z"/>
	<path class="st1" d="M2703.5,899.2l44.9-54.2h-41.8v-10.3h58.8v8.2l-44.8,53.9h47.2v10.3h-64.4V899.2z"/>
	<path class="st1" d="M2809.5,871c0-21.3,14.8-38.1,36.9-38.1c24,0,33.9,21,33.9,37.8v3.3h-58.7c1.5,14.9,13.3,24.3,30.2,24.3
		c9.1,0,17-2.7,23.3-6.7V902c-5.4,4-14.9,6.9-25.7,6.9C2827.1,908.9,2809.5,893.5,2809.5,871z M2868.3,864.4
		c-0.3-8.8-6.6-20.9-22.5-20.9c-14.8,0-23.3,10.4-24,20.9H2868.3z"/>
	<path class="st1" d="M2923.7,884.9c0-15.4,13.4-23.9,29.6-23.9c11.9,0,20,3.4,25.5,6.7v-6.6c0-13.3-10-17.6-23.3-17.6
		c-9.4,0-18.5,3.7-23.6,7.2v-11.2c4.9-3,13.6-6.6,26.1-6.6c18.5,0,32.5,8.5,32.5,27v28.5c0,6.7,2.7,9.4,6.7,9.4c1.6,0,3-0.3,4.2-1
		v9.3c-1.8,1.2-5.1,1.8-7.6,1.8c-6.6,0-12.2-3.4-13.9-11.3c-5.8,6.6-15.2,12.4-28.8,12.4C2936.6,908.9,2923.7,900.4,2923.7,884.9z
		 M2978.8,887v-9.9c-5.2-3.3-13.1-6.7-22.7-6.7c-12.7,0-20.5,5.2-20.5,13.9c0,10,9,14,18.8,14C2965.3,898.3,2974.2,892.6,2978.8,887
		z"/>
	<path class="st1" d="M3048.6,890.8v-88.2h11.9v85.3c0,7,3.3,10.1,9.1,10.1c2.4,0,4.6-0.4,6.9-1.8v10.6c-3.1,1.6-7,2.1-10.9,2.1
		C3057.4,908.9,3048.6,905,3048.6,890.8z"/>
	<path class="st1" d="M3116.4,884.9c0-15.4,13.4-23.9,29.6-23.9c11.9,0,20,3.4,25.5,6.7v-6.6c0-13.3-10-17.6-23.3-17.6
		c-9.4,0-18.5,3.7-23.6,7.2v-11.2c4.9-3,13.6-6.6,26.1-6.6c18.5,0,32.5,8.5,32.5,27v28.5c0,6.7,2.7,9.4,6.7,9.4c1.6,0,3-0.3,4.2-1
		v9.3c-1.8,1.2-5.1,1.8-7.6,1.8c-6.6,0-12.2-3.4-13.9-11.3c-5.8,6.6-15.2,12.4-28.8,12.4C3129.2,908.9,3116.4,900.4,3116.4,884.9z
		 M3171.5,887v-9.9c-5.2-3.3-13.1-6.7-22.7-6.7c-12.7,0-20.5,5.2-20.5,13.9c0,10,9,14,18.8,14C3157.9,898.3,3166.8,892.6,3171.5,887
		z"/>
	<path class="st1" d="M3241.2,907.1v-72.4h11.9v10.9c5.4-6.4,15.1-12.7,28.4-12.7c18.2,0,27.5,11.5,27.5,30.2v44H3297v-41.5
		c0-18.2-11.3-21.5-19.7-21.5c-9.9,0-20,7.2-24.2,14.5v48.5H3241.2z"/>
	<path class="st1" d="M3432.6,802.6v104.5h-11.9v-11.2c-5.4,7.2-14.6,13-27.5,13c-21.7,0-36.1-17.5-36.1-37.9
		c0-20.6,14.5-38.1,36.1-38.1c12.8,0,22.1,6,27.5,13v-43.3H3432.6z M3420.7,859.2c-4-9-13.4-15.7-24.6-15.7
		c-15.5,0-26.9,11.9-26.9,27.5c0,15.4,11.4,27.3,26.9,27.3c10.9,0,20.8-6.9,24.6-15.7V859.2z"/>
	<path class="st1" d="M3556.6,937V834.7h11.9v11.2c5.4-7,14.6-13,27.5-13c21.6,0,36.1,17.5,36.1,37.9c0,20.6-14.5,38.1-36.1,38.1
		c-12.8,0-22.1-5.8-27.5-13V937H3556.6z M3568.5,882.8c4,8.8,13.4,15.5,24.6,15.5c15.5,0,26.9-11.9,26.9-27.5
		c0-15.4-11.3-27.3-26.9-27.3c-10.9,0-20.8,6.9-24.6,15.7V882.8z"/>
	<path class="st1" d="M3747.8,834.7v72.4h-11.9v-10.9c-5.4,6.4-15.1,12.7-28.4,12.7c-18.2,0-27.5-11.5-27.5-30.2v-44h11.9v41.5
		c0,18.2,11.4,21.5,19.7,21.5c9.9,0,20-7.2,24.2-14.5v-48.5H3747.8z"/>
	<path class="st1" d="M3814.6,802.6v43.3c5.4-7,14.6-13,27.5-13c21.6,0,36.1,17.5,36.1,38.1c0,20.5-14.5,37.9-36.1,37.9
		c-12.8,0-22.1-5.8-27.5-13v11.2h-11.9V802.6H3814.6z M3814.6,882.6c3.9,8.8,13.7,15.7,24.6,15.7c15.5,0,26.9-11.9,26.9-27.3
		c0-15.5-11.3-27.5-26.9-27.5c-11.2,0-20.6,6.7-24.6,15.7V882.6z"/>
</g>
<g>
	<rect x="3917.8" y="855" class="st0" width="110.7" height="16.6"/>
</g>
<g>
	<rect x="897.2" y="855" class="st0" width="1285.9" height="16.6"/>
</g>
<g>
	<path class="st0" d="M722.3,847.2c-4.1-5.6-8.2-11.2-12.2-16.8c-4.4-6.1-8.7-12.3-13.2-18.3c-2.3-3.1-4.7-6.3-7.3-9.1
		c-2.3-2.5-2.2-4.7,0.6-6.1c5-2.6,10.3-4.8,15.5-7.1c3.3-1.5,6.5-3.1,9.9-4.1c1.5-0.5,3.9-0.3,5.1,0.7
		c13.2,11.2,26.2,22.6,39.3,33.9c7.9,6.8,15.9,13.5,24.4,19.9c-2.5-3.6-5-7.3-7.6-10.9c-4.8-6.5-9.8-12.9-14.4-19.5
		c-5.6-8.1-11-16.4-16.5-24.6c-1.2-1.8-2.8-3.4-4.9-6.1c2.6-1.9,5.1-4.9,8.1-5.8c8.1-2.4,16.5-3.7,24.8-5.7c2.5-0.6,4.2,0.1,5.8,2.1
		c13,16.2,26.1,32.3,39.2,48.5c8.3,10.3,16.5,20.7,24.7,31.1c0.9,1.1,2,2.2,3,3.2c0.3-0.2,0.6-0.4,1-0.5c-0.7-1.7-1.3-3.4-2.1-4.9
		c-9.5-16.4-19.2-32.7-28.6-49.2c-5.2-9.1-10.1-18.3-14.6-27.7c-1.4-2.8-1.7-6.4-1.6-9.6c0.1-1.5,2.3-3.6,3.9-4.3
		c7.6-3.1,15.3-4.9,23.6-3.1c4.1,0.9,8.3,0.9,12.4,1.5c1.1,0.2,2.4,0.8,3,1.6c9.3,13.3,18.6,26.7,27.8,40.1
		c8.9,13.1,17.7,26.4,26.5,39.6c2.4,3.7,4.7,7.4,7,11.1c0.4-0.2,0.7-0.4,1.1-0.5c-0.9-2.5-1.7-5.1-2.8-7.5
		c-6-12.8-11.8-25.6-18.1-38.2c-7.1-14.4-14.7-28.5-22-42.8c-2.2-4.4-1.1-7.1,3.8-7.2c5.6-0.1,11.3,1,17,1.7c0.7,0.1,1.3,1,1.8,1.6
		c15.7,21.3,31.5,42.6,47.1,64c8.9,12.2,17.3,24.7,25.9,37.1c2.5,3.7,2.5,7-0.2,11.4c-8.5,13.9-16.4,28.2-23.9,42.6
		c-6.1,11.9-11.3,24.3-16.8,36.4c-0.5,1.1-1,2.3-1.3,3.5c-0.6,2.8-2.3,3.5-4.9,3c-5.3-1-10.7-1.9-16-2.8c-2.9-0.5-5.8-1-8.7-1
		c-3.7,0-4.4-2-3.5-4.9c5-15.8,10.2-31.6,15.3-47.4c1.7-5.4,3.3-10.9,4.2-16.7c-0.9,1.9-1.8,3.8-2.7,5.7
		c-5.5,11.7-11,23.4-16.3,35.1c-3.2,7.1-6.1,14.4-8.9,21.6c-2,5.3-2.3,5.4-7.8,4.5c-4.7-0.8-9.4-1-14.2-1.3
		c-3.9-0.2-5.6-1.7-4.7-5.9c2.3-11,4.4-22.1,6.6-33.2c0.6-3.1,1-6.3,1.6-9.4c-0.4-0.1-0.7-0.2-1.1-0.4c-1.6,4.1-3.4,8.1-4.9,12.3
		c-3.1,8.6-7.5,17.2-8.7,26.1c-1.1,8.7-4.9,10.5-12.4,10.6c-5.2,0.1-10.4,1.9-15.6,3c-4.2,0.9-5.3,0.1-5-4.2
		c0.3-3.6,1.1-7.1,1.6-10.7c2.3-20.1,4.6-40.1,6.9-60.2c0.2-1.7-0.1-3.5-0.2-5.2c-0.4-0.1-0.8-0.2-1.3-0.3c-0.8,2.4-1.6,4.7-2.4,7.1
		c-3,9.1-6,18.2-9,27.3c-2.8,8.8-5.5,17.6-8.3,26.3c-1.8,5.7-3.5,11.5-5.6,17.1c-0.4,1.1-2.1,2.2-3.3,2.4
		c-6.7,1.1-13.7,1.3-20.2,3.2c-5.5,1.7-10.8,1-16.2,0.9c-1,0-2.6-1.6-2.8-2.6c-0.3-1.7,0.2-3.6,0.7-5.3c2.7-10.9,5.7-21.8,8-32.8
		c2.6-12.7,4.6-25.5,6.7-38.3c0.3-1.8-0.3-3.8-0.4-5.7c-0.5,0-1-0.1-1.5-0.1c-1.3,3.6-2.7,7.1-4,10.7c-8.6,22.5-18,44.8-25.5,67.7
		c-2.6,8-6.4,10.9-13.9,11.6c-4.3,0.4-8.5,1.8-12.7,2.6c-5.9,1.2-9-1.6-8.1-7.6c3.2-21.8,6.6-43.5,9.9-65.3c0.2-1.4,0.3-2.8,0.5-4.2
		c-0.6-0.2-1.2-0.4-1.8-0.5c-2.1,5.1-4.4,10.1-6.3,15.3c-7.6,21.4-15,42.9-22.4,64.4c-0.9,2.6-2,4.3-5.3,4.9
		c-9.8,1.7-19.6,4.1-29.3,6.2c-3.3,0.7-5-1.2-4.3-4.4c2.2-9.3,4.7-18.5,6.2-27.9c2.4-15.2,4.1-30.4,6-45.6c0.1-0.7-0.1-1.5-1-2.6
		c-1.1,2.3-2.3,4.5-3.4,6.8c-8.2,18.3-13.7,37.4-19,56.7c-1.5,5.6-3.2,11.3-5.1,16.8c-0.5,1.4-1.8,3.2-3,3.4
		c-6.4,1.2-12.9,2-19.4,2.7c-3.8,0.4-7-1.2-7.1-5.3c-0.3-10.3-0.3-20.5-0.3-30.8c0-2.6,0.4-5.3,0.6-7.9c-0.3-0.1-0.7-0.2-1-0.2
		c-1.4,5.2-2.9,10.3-4.3,15.5c-2.2,8.2-4.1,16.5-6.9,24.5c-0.7,2-4.1,3.8-6.5,4.1c-5.3,0.8-10.8,0.6-16.2,0.7c-3.8,0.1-7.6,0-11.4,0
		c-2,0-4.1-4.2-2.6-6.5c6-9.3,2.8-19.9,4.6-29.7c0.8-4.2,0.7-8.4,1.1-12.7c-0.5-0.2-1-0.3-1.5-0.5c-2.8,5.9-6,11.7-8.4,17.8
		c-3.7,9.2-6.8,18.6-10.5,27.7c-0.4,1.1-2.7,2.5-3.8,2.2c-11-2.9-21.9-6.1-32.7-9.4c-2.4-0.7-3-2.5-3-5.2c0-9.1-0.6-18.3-0.9-27.4
		c-0.6-0.1-1.2-0.3-1.7-0.4c-3.9,7.2-8.3,14.3-11.5,21.8c-1.6,3.7-3.4,4.2-6.3,3c-10.2-4.1-20.6-7.8-30.4-12.7
		c-9-4.5-17.6-10.2-26-15.9c-7.1-4.8-13.6-10.4-20.4-15.7c-0.7-0.6-1.4-1.4-1.8-2.3c-0.8-2-2.2-5.5-1.8-5.8c2.7-1.7,4.4-5.4,8.5-4.5
		c4.2,0.9,8.5,1.6,12.8,2.4c12.2,2.1,24.4,3,36.6,0.3c4.8-1.1,8.6,0.9,12.2,3.6c6.1,4.6,12.1,9.5,18.1,14.2c1.2,0.9,2.6,1.5,4,2.2
		c0.3-0.2,0.6-0.5,1-0.8c-3.1-4.5-5.6-9.5-9.3-13.2c-3.3-3.3-2.7-6.7-2.3-10.1c0.2-1.4,2.6-2.8,4.3-3.5c5.8-2.3,11.8-4.1,17.7-6.2
		c3.6-1.3,6.9-1.4,10.1,1.3c4.8,3.9,9.6,7.7,14.9,10.8c6.1,3.7,12.6,6.6,18.9,9.7c2.6,1.3,5.2,2.3,8.2,3.1
		c-9.8-10.6-17.8-22.9-30.9-31.4c1.8-1.9,3.3-4.5,5.6-5.6c6.4-3.2,13-6.3,19.8-8.5c2.3-0.7,6,1.1,8.2,2.8c9,6.8,17.7,14,26.6,21
		c3.8,3,7.5,5.9,11.3,8.8c0.3-0.3,0.7-0.6,1-0.9c-4.3-5.9-8.6-11.8-13-17.6c-4.9-6.4-10.1-12.6-15-19.1c-0.6-0.8-0.7-2.9-0.1-3.8
		c1.1-1.5,2.6-2.9,4.3-3.7c5-2.4,10.1-4.6,15.3-6.6c1.2-0.5,3.1-0.2,4.3,0.5c12.2,7.3,24.3,14.7,36.4,22c0.1,0,0.2-0.1,0.7-0.4
		c-4.8-5.8-9.5-11.6-14.4-17.3c-3.3-3.8-7.1-7.1-10.1-11c-2-2.6,0.5-4.3,2.5-5.4c3.3-1.8,7-3,10.2-4.8c3.4-2,6.4-4.7,9.8-6.8
		c1.1-0.7,3.3-1.2,4.2-0.6c13.6,9,27.1,18.1,40.6,27.3c4.6,3.1,9.1,6.2,13.6,9.4c0.3-0.3,0.6-0.6,0.8-1c-2.3-2.4-4.6-4.9-6.9-7.3
		c-6.7-6.9-13.5-13.7-20.3-20.5c-2.8-2.8-5.8-5.3-8.5-8.1c-4.4-4.5-3.1-9.4,3.1-11c7.4-1.9,13.4-6.1,19-10.9
		c2.2-1.9,3.5-1.9,5.6-0.2c15.2,12.1,30.4,24,45.7,36c2.4,1.9,4.9,3.6,7.3,5.4C721.8,847.7,722.1,847.5,722.3,847.2z M455.9,917.5
		c-0.3,0.3-0.7,0.6-1,0.9c2.4,2.3,4.8,4.6,7.2,6.8c0.3-0.3,0.7-0.7,1-1C460.7,922,458.3,919.7,455.9,917.5z"/>
</g>
<g>
	<path class="st0" d="M4265.6,848c2.4-1.8,4.9-3.5,7.3-5.4c15.2-12,30.5-23.9,45.7-36c2.2-1.7,3.4-1.7,5.6,0.2
		c5.6,4.8,11.6,9,19,10.9c6.1,1.6,7.4,6.5,3.1,11c-2.7,2.8-5.7,5.3-8.5,8.1c-6.8,6.8-13.5,13.7-20.3,20.5c-2.4,2.4-4.6,4.9-7,7.3
		c0.3,0.3,0.6,0.6,0.9,1c4.5-3.1,9-6.3,13.6-9.4c13.5-9.1,27-18.3,40.6-27.3c0.9-0.6,3.1-0.1,4.2,0.6c3.4,2.1,6.4,4.8,9.8,6.8
		c3.2,1.9,6.9,3.1,10.2,4.8c2,1.1,4.5,2.8,2.5,5.4c-3.1,3.9-6.9,7.3-10.1,11c-4.9,5.6-9.5,11.4-14.4,17.3c0.5,0.2,0.6,0.4,0.7,0.4
		c12.1-7.4,24.2-14.8,36.4-22c1.2-0.7,3.1-1,4.3-0.5c5.2,2,10.3,4.2,15.3,6.6c1.7,0.8,3.3,2.2,4.3,3.7c0.6,0.9,0.6,2.9-0.1,3.8
		c-4.9,6.5-10,12.7-15,19.1c-4.4,5.8-8.7,11.7-13,17.6c0.4,0.3,0.7,0.6,1,0.9c3.8-2.9,7.6-5.9,11.3-8.8c8.8-7,17.6-14.2,26.6-21
		c2.3-1.7,6-3.5,8.2-2.8c6.8,2.1,13.4,5.2,19.8,8.5c2.2,1.1,3.7,3.7,5.6,5.6c-13.1,8.5-21.1,20.8-30.9,31.4c3-0.7,5.7-1.8,8.2-3.1
		c6.4-3.2,12.9-6.1,18.9-9.7c5.2-3.1,10.1-7,14.9-10.8c3.3-2.7,6.5-2.6,10.1-1.3c5.9,2.1,11.9,4,17.7,6.2c1.7,0.7,4.1,2.1,4.3,3.5
		c0.5,3.4,1,6.8-2.3,10.1c-3.8,3.7-6.3,8.7-9.3,13.2c0.3,0.3,0.6,0.5,1,0.8c1.3-0.7,2.8-1.3,4-2.2c6.1-4.7,12-9.5,18.1-14.2
		c3.6-2.7,7.3-4.7,12.2-3.6c12.2,2.7,24.4,1.9,36.6-0.3c4.3-0.7,8.5-1.4,12.8-2.4c4.1-0.9,5.8,2.8,8.5,4.5c0.5,0.3-1,3.8-1.8,5.8
		c-0.3,0.9-1,1.7-1.8,2.3c-6.8,5.3-13.3,10.9-20.4,15.7c-8.4,5.7-16.9,11.3-26,15.9c-9.8,4.9-20.2,8.7-30.4,12.7
		c-2.8,1.1-4.7,0.6-6.3-3c-3.2-7.5-7.6-14.6-11.5-21.8c-0.6,0.1-1.1,0.2-1.7,0.4c-0.4,9.1-0.9,18.3-0.9,27.4c0,2.7-0.6,4.4-3,5.2
		c-10.9,3.2-21.8,6.4-32.7,9.4c-1,0.3-3.3-1.1-3.8-2.2c-3.6-9.2-6.8-18.6-10.5-27.7c-2.4-6.1-5.6-11.9-8.4-17.8
		c-0.5,0.2-1,0.3-1.5,0.5c0.3,4.2,0.3,8.5,1.1,12.7c1.8,9.9-1.4,20.4,4.6,29.7c1.5,2.3-0.6,6.4-2.6,6.5c-3.8,0.1-7.6,0.1-11.4,0
		c-5.4-0.1-10.9,0.1-16.2-0.7c-2.4-0.3-5.9-2.2-6.5-4.1c-2.8-8-4.6-16.3-6.9-24.5c-1.4-5.2-2.8-10.3-4.3-15.5
		c-0.3,0.1-0.7,0.2-1,0.2c0.2,2.6,0.6,5.3,0.6,7.9c0,10.3,0.1,20.5-0.3,30.8c-0.1,4.1-3.3,5.7-7.1,5.3c-6.5-0.7-13-1.6-19.4-2.7
		c-1.2-0.2-2.6-2-3-3.4c-1.9-5.5-3.6-11.1-5.1-16.8c-5.2-19.3-10.8-38.4-19-56.7c-1-2.3-2.3-4.5-3.4-6.8c-0.9,1-1.1,1.8-1,2.6
		c1.9,15.2,3.6,30.5,6,45.6c1.5,9.4,4,18.6,6.2,27.9c0.8,3.2-1,5.1-4.3,4.4c-9.8-2.1-19.5-4.5-29.3-6.2c-3.3-0.6-4.4-2.4-5.3-4.9
		c-7.5-21.5-14.9-43-22.4-64.4c-1.8-5.2-4.2-10.2-6.3-15.3c-0.6,0.2-1.2,0.4-1.7,0.5c0.2,1.4,0.3,2.8,0.5,4.2
		c3.3,21.8,6.7,43.5,9.9,65.3c0.9,6-2.2,8.8-8.1,7.6c-4.2-0.8-8.4-2.2-12.7-2.6c-7.4-0.7-11.2-3.6-13.9-11.6
		c-7.6-22.9-16.9-45.2-25.5-67.7c-1.4-3.6-2.7-7.1-4-10.7c-0.5,0-1,0.1-1.5,0.1c-0.2,1.9-0.7,3.8-0.4,5.7
		c2.1,12.8,4.1,25.6,6.7,38.3c2.3,11,5.4,21.9,8,32.8c0.4,1.7,1,3.6,0.7,5.3c-0.2,1.1-1.8,2.6-2.8,2.6c-5.4,0-10.7,0.7-16.2-0.9
		c-6.5-2-13.5-2.1-20.2-3.2c-1.2-0.2-2.9-1.3-3.3-2.4c-2.1-5.6-3.8-11.4-5.6-17.1c-2.8-8.8-5.5-17.6-8.3-26.3
		c-2.9-9.1-6-18.2-9-27.3c-0.8-2.4-1.6-4.7-2.4-7.1c-0.4,0.1-0.8,0.2-1.3,0.3c-0.1,1.7-0.4,3.5-0.2,5.2c2.3,20.1,4.6,40.2,6.9,60.2
		c0.4,3.6,1.3,7.1,1.5,10.7c0.3,4.4-0.8,5.1-5,4.2c-5.2-1.1-10.4-2.9-15.6-3c-7.6-0.1-11.3-1.8-12.4-10.6
		c-1.2-8.9-5.6-17.4-8.7-26.1c-1.5-4.2-3.3-8.2-4.9-12.3c-0.4,0.1-0.8,0.2-1.1,0.4c0.5,3.1,1,6.3,1.6,9.4
		c2.1,11.1,4.3,22.2,6.6,33.2c0.9,4.2-0.8,5.6-4.7,5.9c-4.7,0.3-9.5,0.5-14.2,1.3c-5.4,1-5.8,0.8-7.8-4.5
		c-2.8-7.3-5.7-14.5-8.9-21.6c-5.3-11.8-10.9-23.4-16.3-35.1c-0.9-1.9-1.8-3.8-2.7-5.7c0.8,5.8,2.4,11.3,4.2,16.7
		c5.1,15.8,10.3,31.6,15.3,47.4c0.9,2.9,0.2,4.9-3.5,4.9c-2.9,0-5.8,0.6-8.7,1c-5.4,0.9-10.7,1.8-16,2.8c-2.6,0.5-4.3-0.2-4.9-3
		c-0.3-1.2-0.8-2.4-1.3-3.5c-5.6-12.2-10.7-24.6-16.8-36.4c-7.5-14.5-15.4-28.7-23.9-42.6c-2.7-4.4-2.7-7.7-0.2-11.4
		c8.5-12.4,17-24.9,25.9-37.1c15.6-21.4,31.4-42.7,47.1-64c0.5-0.6,1.1-1.6,1.8-1.6c5.7-0.7,11.3-1.8,17-1.7c4.9,0.1,6,2.7,3.8,7.2
		c-7.3,14.3-14.8,28.4-22,42.8c-6.3,12.6-12.1,25.4-18.1,38.2c-1.1,2.4-1.9,5-2.8,7.5c0.4,0.2,0.7,0.4,1.1,0.5
		c2.3-3.7,4.6-7.5,7-11.1c8.8-13.2,17.6-26.5,26.5-39.6c9.2-13.5,18.5-26.8,27.8-40.1c0.6-0.9,2-1.5,3-1.6c4.1-0.6,8.4-0.6,12.4-1.5
		c8.3-1.9,16.1-0.1,23.7,3.1c1.7,0.7,3.8,2.8,3.9,4.3c0.2,3.2-0.2,6.8-1.6,9.6c-4.6,9.4-9.5,18.7-14.6,27.7
		c-9.4,16.5-19.1,32.8-28.6,49.2c-0.9,1.5-1.4,3.3-2.1,4.9c0.3,0.2,0.6,0.4,1,0.5c1-1.1,2.1-2.1,3-3.2c8.3-10.4,16.4-20.8,24.7-31.1
		c13-16.2,26.2-32.3,39.2-48.5c1.6-2,3.2-2.7,5.8-2.1c8.3,1.9,16.7,3.3,24.8,5.7c3.1,0.9,5.6,3.9,8.2,5.8c-2.2,2.7-3.7,4.3-4.9,6.1
		c-5.5,8.2-10.9,16.5-16.5,24.6c-4.6,6.6-9.6,13-14.4,19.5c-2.6,3.6-5,7.3-7.6,10.9c8.5-6.4,16.5-13,24.4-19.9
		c13.1-11.3,26.1-22.7,39.3-33.9c1.1-0.9,3.5-1.1,5.1-0.7c3.4,1,6.6,2.7,9.9,4.1c5.2,2.3,10.5,4.5,15.5,7.1c2.7,1.4,2.9,3.6,0.6,6.1
		c-2.7,2.8-5,6-7.3,9.1c-4.5,6.1-8.8,12.2-13.2,18.3c-4.1,5.6-8.1,11.2-12.2,16.8C4265.1,847.5,4265.3,847.7,4265.6,848z
		 M4524,924.2c0.3,0.4,0.7,0.7,1,1c2.4-2.3,4.8-4.6,7.2-6.8c-0.3-0.3-0.7-0.6-1-0.9C4528.8,919.7,4526.4,922,4524,924.2z"/>
</g>
</svg>
