<?xml version="1.0" encoding="utf-8"?>
<!-- Generator: Adobe Illustrator 19.1.1, SVG Export Plug-In . SVG Version: 6.00 Build 0)  -->
<svg version="1.1" id="Layer_1" xmlns="http://www.w3.org/2000/svg" xmlns:xlink="http://www.w3.org/1999/xlink" x="0px" y="0px"
	 viewBox="2116.1 197.7 4827.8 628.1" style="enable-background:new 2116.1 197.7 4827.8 628.1;" xml:space="preserve">
<style type="text/css">
	.st0{fill:#FFFFFF;}
</style>
<g>
	<g>
		<path class="st0" d="M2175.5,488.8c6.5-26.4,10-53.9,19.7-79.1c36.8-95.4,111-144.1,209-159.8c56.3-9.1,111.7-4.2,164.1,19.4
			c94.2,42.4,145.2,116.4,152.7,218.8c2.2,30.4,2.5,62.3-4.8,91.4c-10.6,43.3-32.8,82.3-66.4,113.3c-9.9,9.1-20.3,17.6-31.1,25.6
			c-4,2.9-9.7,5.9-14.5,5.4c-11.6-0.9-20.2,0.5-26.8,12.2c-11.1,19.4-33.1,23.6-51.9,26c-52.1,7.1-105.6,12-156.7-2.6
			c-98.3-28.2-162.3-92.6-188.5-192.6c-2-7.6-3.2-15.4-4.8-23.1C2175.5,525.5,2175.5,507.1,2175.5,488.8z M2456.1,413.7
			c-59.8-1.1-107.1,44.7-102.8,100.5c1.7,23.1,9.6,45.3,27.3,60.1c16.2,13.6,36.1,22.5,54.4,33.3c1.5,0.9,4.3,0.3,6.3-0.2
			c16-3.9,32.8-6,47.9-12.3c43.5-18.2,65.7-59,57.3-102.2C2538,447.6,2500.1,414.5,2456.1,413.7z"/>
	</g>
	<g>
		<path class="st0" d="M4767.5,441.6c-6.3,22.3-11.9,45-19.3,67c-20.8,62.1-41.8,124.2-64,185.9c-7.4,20.7-17.3,40.7-28.5,59.3
			c-4.5,7.4-16,14.2-24.7,14.5c-37,1.7-74.3,1.2-111.4,0.2c-5.1-0.2-12.6-7.9-14.5-13.4c-27.7-85.5-54.7-171.5-81.8-257.2
			c-5.5-17.6-11.4-35.1-17.6-54.1c-12.2,12.3-7.7,26-6.6,38.8c0.9,11.3,3.1,271.4,6.6,287.4c-31.9,0-61.3,0-90.9,0
			c-23.1,0-46.4-0.2-69.5,0.6c-10.6,0.5-14.5-4.5-15.3-13.7c-0.2-1.5-0.2-3.2-0.2-4.8c0-50.5-0.2-100.9,0-151.5
			c0-4.6,1.5-9.6,3.5-13.7c4.5-9.6,7.9-18.2-1.1-27.6c-2.6-2.8-2.5-9.1-2.5-13.7c-0.2-72.7-0.2-145.3-0.2-218.1
			c0-16,0.5-32.1,0-47.9c-0.5-13.9,5.4-22,19.4-22c34.2,0.2,68.6,1.1,102.8,1.2c6.2,0,12.5-2.8,18.6-2.8c41.9-0.3,84-0.8,125.9,0.6
			c6,0.2,14.9,8.8,17,15.1c21.4,72.4,41.6,145.2,62.3,217.8c2.9,10.5,6.8,20.8,14,31.3c8-25.7,16-51.5,24-77.2
			c17.3-55.6,35-111.3,51.5-167.2c5.1-17.1,13.1-24,31.7-23.7c70,1.1,139.9,0.8,209.9,0.2c15.3-0.2,21.1,4.6,21.1,20.2
			c0,42.5,1.8,84.9,2,127.4c0.8,112.3,0.6,224.7,2,336.9c0.2,18.2-6,25.4-22.8,26.5c-7.4,0.5-14.9,2.5-22.3,2.5
			c-36.5,0.3-73.2,0.2-109.9,0.2c-9.2,0-14.5-1.5-14.2-13.6c2.6-77.4,4.3-154.9,6.5-232.2c0.6-21.4,2.6-42.8,3.7-64.3
			c0.2-4.8-1.1-9.7-1.7-14.6C4770.4,441.8,4769,441.8,4767.5,441.6z"/>
	</g>
	<g>
		<path class="st0" d="M3471.3,330.7c45.2,0,90.5,0.6,135.6-0.2c130.7-2.2,201.7,103.7,216.2,189.6c5.5,32.5,2.2,64.3-5.2,95.9
			c-1.5,6.8-6.9,12.6-10,19.1c-3.4,6.9-5.9,14.5-9.1,21.4c-16.5,36.1-39.6,66.3-76.1,84.1c-33.3,16.2-68.4,24.2-105.6,24.8
			c-61.8,1.1-123.6,3.4-185.4,4c-30.4,0.3-60.9-1.8-91.2-2.8c-2.2-0.2-4.3-0.2-6.5,0.2c-36.2,5.9-35.9,2.9-35.9-35.8
			c0-66.1-1.4-132.4,0.9-198.5c0.6-18.6-7.1-35.1-6-53.3c2.3-43.5,3.7-86.9,5.1-130.2c0.3-10.5,5.2-15.9,15.4-16.8
			c4.3-0.3,8.6-0.9,12.8-0.9c48.4,0,96.8,0,145.3,0C3471.3,331.1,3471.3,330.8,3471.3,330.7z M3457.8,640.3
			c40.4,0,76.9,1.2,113.4-0.6c15.4-0.8,32.8-4.5,45.5-12.6c33.4-21.9,48.1-55.5,40.4-94.6c-7.4-37.6-33.9-62.7-70.7-68.3
			c-41.5-6.2-84-4.9-126.2-6.9c0,24.5,0.5,46.5-0.3,68.4c-0.2,5.9-2.3,14.9-6.2,16.6c-16.5,7.1-7.4,13.3-1.1,20.8
			c3.5,4.2,7.9,9.6,7.9,14.3C3460.6,597.9,3458.9,618.5,3457.8,640.3z"/>
	</g>
	<g>
		<path class="st0" d="M6280.4,616.1c0,41.5-0.2,81.7,0,122.1c0,19.1-5.1,25.3-24.3,25.6c-35,0.5-70,0.5-104.9,0.2
			c-16.8-0.2-24.5-7.6-27-23.9c-0.5-2.6-0.3-5.4-0.3-8c0-59.5,0.5-118.8-0.2-178.3c-0.5-47.6-2.2-95.2-3.1-142.9
			c-0.5-19.3-0.6-38.5-0.5-57.8c0.2-18.6,4.5-23,22.5-23c107.1,0.2,214.2-0.6,321.3,1.2c25.7,0.5,52.6,6,76.7,15.1
			c68.3,25.4,87.4,80,82.3,145.8c-1.8,23.6-12.3,43-28,59.9c-7.2,7.9-14.2,16-21.6,24.5c24.7,23.9,39.9,51.8,42.2,84.8
			c2.2,30.2,0.8,60.7,0.8,91.2c0,10-5.1,14.3-15.1,14.3c-42.5-0.5-85.1-0.5-127.6-0.9c-16.2-0.2-24.2-8.5-24.3-24.8
			c-0.3-23-0.5-45.9-0.8-68.9c-0.5-32.7-17.1-52.9-53.8-55.8C6356.8,613.6,6318.5,616.1,6280.4,616.1z M6278.7,495.2
			c26.7,0,51.9,0.2,77.1,0c28.5-0.2,57-0.2,85.5-1.2c10.2-0.3,21.4-2.2,20.8-16.6c-0.6-14.6-11.4-14.6-22-14.6
			c-39.8,0-79.5,0-119.4,0c-13.7,0-27.6,0-41.9,0C6278.7,474.1,6278.7,483.7,6278.7,495.2z"/>
	</g>
	<g>
		<path class="st0" d="M6039.1,547c14.6,107.7-94.2,216.7-192.3,228.4c-83.1,9.9-158.3-9.9-223.3-62c-51.9-41.6-70-100-68.6-164.9
			c1.2-57,20.2-108.5,54.1-153.8c34.2-45.5,80.6-71.4,137.3-78.1c62.7-7.4,124.4-5.2,182.3,24.2c73.8,37.4,109.3,98.5,110.3,180.3
			C6039.2,529.9,6039.1,538.4,6039.1,547z M5796,462.7c-48.9-0.2-85.1,37.8-86.9,88.2c-1.7,49,45.2,86.1,84,86.3
			c45.2,0.3,93.1-42.8,90-85.5C5879.7,502,5850,464.4,5796,462.7z"/>
	</g>
	<g>
		<path class="st0" d="M5491.6,669.1c1.8,28.7,3.9,57.9,5.9,88.9c-25.3,2.9-48.4,6.5-71.8,7.9c-23.1,1.4-46.2,0.8-69.4-0.2
			c-4-0.2-10-5.2-11.4-9.2c-4.6-13.1-7.4-26.8-11.6-42.4c-16.6,0-33.8,0-50.9,0c-29.1,0-58.1,0.6-87.2-0.3
			c-13.6-0.5-19.1,4.9-21.9,17.4c-8.3,38.2-0.3,31-41,34.4c-35.6,3.1-71.5,0.9-107.4,1.1c-17.3,0.2-13.9-12.2-12-21.7
			c5.9-29.9,13.1-59.6,19.3-89.5c6.5-32.1,13.9-64.1,18-96.5c8.8-69.3,27.7-136.7,40.2-205.3c3.1-17.3,14.5-19.6,27.9-20
			c51.6-1.5,103.3-2.6,154.9-4c35.9-0.9,72-2.2,107.9-3.2c1.5,0,3.2-0.3,4.8-0.3c28.8,0.2,32.4,2.6,38.2,30.5
			c15.4,72.9,30.8,145.6,45.5,218.7c4.2,20.3,6,41,8.6,61.6c0.6,4.2,1.4,9.4-0.5,12.5C5470.1,663.1,5478.6,666.2,5491.6,669.1z
			 M5288.2,462.7c-21.1,0-41.5-0.6-61.6,0.5c-4,0.2-10.5,6-11.1,10c-5.1,34.5-8.9,69-13.4,103.7c-1.2,9.4,2.3,12.3,11.4,12.3
			c27.9-0.3,55.9-0.6,83.8,0c12.2,0.3,14.8-4.6,12.6-15.6C5302.6,537.5,5295.6,501.3,5288.2,462.7z"/>
	</g>
	<g>
		<path class="st0" d="M2976.9,634.9c50.7,0,102.9,0.5,155.2-0.2c26.8-0.3,53.6-2.3,80.3-3.7c9.6-0.5,15.9,2.5,15.9,13.1
			c0,39.8,0,79.5,0,121.1c-6.9,0-12.6,0-18.5,0c-86.1,0-172.3,0.5-258.4-0.3c-26.2-0.2-52.4-6-78.3-4.2c-13.9,0.9-24.3-3.4-36.4-6.3
			c-4.3-1.1-10.3,4.2-17,7.1c-9.7-7.6-14.8-18.8-14.3-33.1c1.2-33.6,1.7-67.2,3.4-100.8c0.5-9.9,4-19.6,6-29.4
			c6.3-30.2-12.9-58.6-6.2-88.8c1.4-6.5,4.6-12.5,5.9-18.8c1.5-8,3.2-16.5,2.8-24.5c-2.2-39.6-4.9-79.1-7.6-118.5
			c-0.9-13.4,4.9-17.9,18-17.7c44.1,0.9,88.3,1.2,132.4,1.1c14.3,0,19.9,4.9,19.6,20c-1.5,78-2.2,156.1-2.9,234.1
			C2976.7,601,2976.9,616.7,2976.9,634.9z"/>
	</g>
	<g>
		<path class="st0" d="M6725.6,763.2c-5.2-39-11.4-76.3-6.2-115.4c2.6-19.9,3.5-126.1,4.3-137c0.9-11.7-0.3-23.4,0.3-35.1
			c0.3-6.5,2.5-12.9,4.2-21.1c6.9,3.9-10.5-108.6-6.3-111.7c7.2-5.2,28.2,3.2,32.1-3.5c6.3-10.8,14.3-9.4,23.1-9.1
			c28.5,0.6,57,1.1,85.5,2.5c16.2,0.8,22,7.6,21.9,24.3c-0.8,125.8-1.7,251.5-2.6,377.1c-0.2,17.4-8.6,24.8-25.3,25.9
			c-11.6,0.8-24.3,8.8-34.1,5.5C6790.5,755.4,6758.4,762.8,6725.6,763.2z"/>
	</g>
</g>
</svg>
